<!DOCTYPE svg PUBLIC "-//W3C//DTD SVG 1.1//EN" "http://www.w3.org/Graphics/SVG/1.1/DTD/svg11.dtd">
<!-- Uploaded to: SVG Repo, www.svgrepo.com, Transformed by: SVG Repo Mixer Tools -->
<svg width="140px" height="140px" viewBox="0 -3.06 81.014 81.014" xmlns="http://www.w3.org/2000/svg" fill="#00C0E8">
<g id="SVGRepo_bgCarrier" stroke-width="0"/>
<g id="SVGRepo_tracerCarrier" stroke-linecap="round" stroke-linejoin="round"/>
<g id="SVGRepo_iconCarrier"> <g id="Group_8" data-name="Group 8" transform="translate(-297.623 -407.595)"> <circle id="Ellipse_16" data-name="Ellipse 16" cx="12.154" cy="12.154" r="12.154" transform="translate(309.145 419.117)" fill="#814dff"/> <path id="Path_23" data-name="Path 23" d="M350.939,480.984a26.2,26.2,0,1,0-25.126-33.607,16.517,16.517,0,0,0-3.41-.348,16.978,16.978,0,1,0,0,33.955Z" fill="none" stroke="#00C0E8" stroke-linecap="round" stroke-miterlimit="10" stroke-width="3" opacity="0.15"/> <path id="Path_24" data-name="Path 24" d="M350.939,471.324a26.2,26.2,0,1,0-25.126-33.607,16.517,16.517,0,0,0-3.41-.348,16.978,16.978,0,1,0,0,33.955Z" fill="none" stroke="#00C0E8" stroke-linecap="round" stroke-miterlimit="10" stroke-width="3"/> <line id="Line_6" data-name="Line 6" y1="6.163" transform="translate(321.299 407.595)" fill="none" stroke="#814dff" stroke-miterlimit="10" stroke-width="3"/> <line id="Line_7" data-name="Line 7" x1="6.163" transform="translate(297.623 431.271)" fill="none" stroke="#814dff" stroke-miterlimit="10" stroke-width="3"/> </g> </g>
</svg>